<svg width="80" height="80" viewBox="0 0 80 80" fill="none" xmlns="http://www.w3.org/2000/svg">
<path d="M53.2968 58.5399C51.7186 58.5399 50.205 57.913 49.089 56.797C47.973 55.681 47.3461 54.1674 47.3461 52.5892V40.3584C47.3461 38.6445 46.8214 36.943 45.7322 35.6184C45.0571 34.7915 44.2065 34.125 43.2421 33.6674C42.2777 33.2097 41.2236 32.9723 40.1561 32.9723C39.0886 32.9723 38.0344 33.2097 37.07 33.6674C36.1056 34.125 35.255 34.7915 34.5799 35.6184C33.4922 36.943 32.9676 38.6445 32.9676 40.3584V52.5892C32.9672 54.1675 32.3399 55.6811 31.2237 56.7971C30.1074 57.913 28.5937 58.5399 27.0153 58.5399C26.8875 58.5399 26.7609 58.5147 26.6428 58.4658C26.5248 58.4168 26.4175 58.3451 26.3272 58.2546C26.2369 58.1642 26.1653 58.0568 26.1165 57.9386C26.0678 57.8205 26.0428 57.6939 26.043 57.5661V40.5092C26.043 36.8553 27.3045 33.2615 29.7891 30.5815C31.1116 29.1524 32.7153 28.0122 34.4995 27.2324C36.2836 26.4526 38.2097 26.05 40.1568 26.05C42.1039 26.05 44.03 26.4526 45.8142 27.2324C47.5983 28.0122 49.202 29.1524 50.5245 30.5815C53.0076 33.2615 54.2707 36.8553 54.2707 40.5092V57.5661C54.2709 57.694 54.2458 57.8208 54.197 57.939C54.1481 58.0573 54.0764 58.1647 53.9859 58.2552C53.8954 58.3456 53.788 58.4174 53.6697 58.4662C53.5515 58.5151 53.4248 58.5401 53.2968 58.5399Z" fill="#2C57A6"/>
<path d="M63.9401 52.4738C62.3618 52.4738 60.8482 51.8468 59.7323 50.7309C58.6163 49.6149 57.9893 48.1013 57.9893 46.523V40.523C57.9893 36.0892 56.4909 31.7338 53.5539 28.4107C51.8791 26.5074 49.818 24.9828 47.5078 23.9384C45.1977 22.894 42.6915 22.3538 40.1562 22.3538C37.621 22.3538 35.1148 22.894 32.8046 23.9384C30.4945 24.9828 28.4334 26.5074 26.7585 28.4107C23.8232 31.7261 22.3201 36.0815 22.3201 40.5153V46.5153C22.3211 47.2972 22.168 48.0716 21.8696 48.7942C21.5712 49.5169 21.1333 50.1737 20.581 50.727C20.0286 51.2804 19.3726 51.7195 18.6505 52.0192C17.9284 52.3189 17.1542 52.4734 16.3724 52.4738C16.2438 52.4742 16.1164 52.4491 15.9976 52.3999C15.8787 52.3508 15.7708 52.2785 15.6801 52.1874C15.5894 52.0962 15.5177 51.988 15.4691 51.8689C15.4205 51.7499 15.396 51.6224 15.397 51.4938V40.1661C15.397 33.6002 18.0053 27.3031 22.6481 22.6603C27.291 18.0175 33.588 15.4092 40.1539 15.4092C46.7199 15.4092 53.0169 18.0175 57.6597 22.6603C62.3025 27.3031 64.9109 33.6002 64.9109 40.1661V51.4876C64.9127 51.6164 64.8889 51.7441 64.841 51.8636C64.7931 51.9831 64.7219 52.0918 64.6316 52.1836C64.5412 52.2753 64.4336 52.3482 64.3149 52.398C64.1962 52.4478 64.0688 52.4736 63.9401 52.4738Z" fill="#2C57A6"/>
<path d="M40.1569 64.8876C39.2385 64.8876 38.3576 64.5227 37.7082 63.8733C37.0587 63.2238 36.6938 62.343 36.6938 61.4245V40.1014C36.7207 39.2012 37.0972 38.3469 37.7434 37.7197C38.3896 37.0924 39.2548 36.7416 40.1554 36.7416C41.056 36.7416 41.9211 37.0924 42.5674 37.7197C43.2136 38.3469 43.5901 39.2012 43.6169 40.1014V61.4245C43.6171 61.8791 43.5278 62.3293 43.354 62.7493C43.1802 63.1694 42.9254 63.5511 42.6042 63.8727C42.2829 64.1942 41.9014 64.4494 41.4815 64.6235C41.0616 64.7977 40.6115 64.8874 40.1569 64.8876Z" fill="#2C57A6"/>
</svg>
