<svg width="83" height="83" viewBox="0 0 83 83" fill="none" xmlns="http://www.w3.org/2000/svg">
    <path d="M41.5 1C63.852 1 82 19.1481 82 41.5C82 63.852 63.852 82 41.5 82C19.1481 82 1 63.852 1 41.5C1 19.1481 19.1481 1 41.5 1Z" fill="#71D5FF"/>
    <path d="M41.5 1C63.852 1 82 19.148 82 41.5C82 63.852 63.852 82 41.5 82C19.148 82 1 63.852 1 41.5C1 19.148 19.148 1 41.5 1Z" stroke="white" stroke-width="0.933728"/>
    <path d="M41.5 1C63.852 1 82 19.1481 82 41.5C82 63.852 63.852 82 41.5 82C19.1481 82 1 63.852 1 41.5C1 19.1481 19.1481 1 41.5 1Z" fill="#2C57A6"/>
    <path d="M41.5 1C63.852 1 82 19.148 82 41.5C82 63.852 63.852 82 41.5 82C19.148 82 1 63.852 1 41.5C1 19.148 19.148 1 41.5 1Z" stroke="white" stroke-width="0.933728"/>
    <path d="M24.3906 44.4348L34.9826 54.7467L59.4054 30.2363" stroke="white" stroke-width="7.00296" stroke-linecap="round" stroke-linejoin="round"/>
    </svg>
    