<svg width="56" height="56" viewBox="0 0 56 56" fill="none" xmlns="http://www.w3.org/2000/svg">
    <g clip-path="url(#clip0_13_1129)">
    <path d="M3.5 8.80828V26.6279C3.56856 32.5161 5.44502 38.2409 8.87526 43.0271C12.3055 47.8133 17.1238 51.4298 22.6777 53.3866L25.2933 54.3526C27.0407 54.9943 28.9593 54.9943 30.7067 54.3526L33.3223 53.3866C38.8762 51.4298 43.6945 47.8133 47.1247 43.0271C50.555 38.2409 52.4314 32.5161 52.5 26.6279V8.80828C52.4977 8.10818 52.2899 7.42416 51.9025 6.84099C51.5151 6.25783 50.9651 5.80117 50.3207 5.52762C43.2525 2.57748 35.6588 1.09381 28 1.16662C20.3412 1.09381 12.7475 2.57748 5.67933 5.52762C5.03488 5.80117 4.48487 6.25783 4.09748 6.84099C3.71009 7.42416 3.50234 8.10818 3.5 8.80828Z" fill="#E3F2FD"/>
    <path d="M28 1.16662C20.3412 1.09381 12.7475 2.57748 5.67933 5.52762C5.03488 5.80117 4.48487 6.25783 4.09748 6.84099C3.71009 7.42416 3.50234 8.10818 3.5 8.80828V26.6279C3.56856 32.5161 5.44502 38.2409 8.87526 43.0271C12.3055 47.8133 17.1238 51.4298 22.6777 53.3866L25.2933 54.3526C26.1604 54.6704 27.0766 54.8331 28 54.8333V1.16662Z" fill="white"/>
    <path d="M3.5 8.80828V26.6279C3.56856 32.5161 5.44502 38.2409 8.87526 43.0271C12.3055 47.8133 17.1238 51.4298 22.6777 53.3866L25.2933 54.3526C27.0407 54.9943 28.9593 54.9943 30.7067 54.3526L33.3223 53.3866C38.8762 51.4298 43.6945 47.8133 47.1247 43.0271C50.555 38.2409 52.4314 32.5161 52.5 26.6279V8.80828C52.4977 8.10818 52.2899 7.42416 51.9025 6.84099C51.5151 6.25783 50.9651 5.80117 50.3207 5.52762C43.2525 2.57748 35.6588 1.09381 28 1.16662C20.3412 1.09381 12.7475 2.57748 5.67933 5.52762C5.03488 5.80117 4.48487 6.25783 4.09748 6.84099C3.71009 7.42416 3.50234 8.10818 3.5 8.80828Z" stroke="#424242" stroke-width="2.33333" stroke-linecap="round" stroke-linejoin="round"/>
    <path d="M28 36.1663C34.4433 36.1663 39.6667 30.943 39.6667 24.4997C39.6667 18.0564 34.4433 12.833 28 12.833C21.5567 12.833 16.3333 18.0564 16.3333 24.4997C16.3333 30.943 21.5567 36.1663 28 36.1663Z" fill="#8BC7EF"/>
    <path d="M28 36.1663C24.9058 36.1663 21.9383 34.9372 19.7504 32.7493C17.5625 30.5613 16.3333 27.5939 16.3333 24.4997C16.3333 21.4055 17.5625 18.438 19.7504 16.2501C21.9383 14.0622 24.9058 12.833 28 12.833V36.1663Z" fill="#8BC7EF"/>
    <path d="M39.6667 24.4997C39.6667 26.8071 38.9824 29.0628 37.7005 30.9813C36.4185 32.8999 34.5964 34.3952 32.4646 35.2783C30.3328 36.1613 27.9871 36.3923 25.7239 35.9422C23.4608 35.492 21.382 34.3809 19.7504 32.7493C18.1188 31.1176 17.0077 29.0388 16.5575 26.7757C16.1073 24.5126 16.3384 22.1668 17.2214 20.035C18.1044 17.9032 19.5998 16.0811 21.5183 14.7992C23.4369 13.5172 25.6926 12.833 28 12.833" stroke="#424242" stroke-width="2.33333" stroke-linecap="round" stroke-linejoin="round"/>
    <path d="M23.3333 23.333L27.1133 26.168C27.3526 26.3474 27.6516 26.428 27.9486 26.3932C28.2456 26.3585 28.5179 26.2111 28.7093 25.9813L39.6667 12.833" stroke="#424242" stroke-width="2.33333" stroke-linecap="round" stroke-linejoin="round"/>
    </g>
    <defs>
    <clipPath id="clip0_13_1129">
    <rect width="56" height="56" fill="white"/>
    </clipPath>
    </defs>
    </svg>
    