<svg width="56" height="56" viewBox="0 0 56 56" fill="none" xmlns="http://www.w3.org/2000/svg">
    <g clip-path="url(#clip0_13_1801)">
    <path d="M3.5 8.80828V26.6279C3.56856 32.5161 5.44502 38.2409 8.87526 43.0271C12.3055 47.8133 17.1238 51.4298 22.6777 53.3866L25.2933 54.3526C27.0407 54.9943 28.9593 54.9943 30.7067 54.3526L33.3223 53.3866C38.8762 51.4298 43.6945 47.8133 47.1247 43.0271C50.555 38.2409 52.4314 32.5161 52.5 26.6279V8.80828C52.4977 8.10818 52.2899 7.42416 51.9025 6.84099C51.5151 6.25783 50.9651 5.80117 50.3207 5.52762C43.2525 2.57748 35.6588 1.09381 28 1.16662C20.3412 1.09381 12.7475 2.57748 5.67933 5.52762C5.03488 5.80117 4.48487 6.25783 4.09748 6.84099C3.71009 7.42416 3.50234 8.10818 3.5 8.80828Z" fill="#FBDEDA"/>
    <path d="M28 1.16662C20.3412 1.09381 12.7475 2.57748 5.67933 5.52762C5.03488 5.80117 4.48487 6.25783 4.09748 6.84099C3.71009 7.42416 3.50234 8.10818 3.5 8.80828V26.6279C3.56856 32.5161 5.44502 38.2409 8.87526 43.0271C12.3055 47.8133 17.1238 51.4298 22.6777 53.3866L25.2933 54.3526C26.1604 54.6704 27.0766 54.8331 28 54.8333V1.16662Z" fill="white"/>
    <path d="M3.5 8.80828V26.6279C3.56856 32.5161 5.44502 38.2409 8.87526 43.0271C12.3055 47.8133 17.1238 51.4298 22.6777 53.3866L25.2933 54.3526C27.0407 54.9943 28.9593 54.9943 30.7067 54.3526L33.3223 53.3866C38.8762 51.4298 43.6945 47.8133 47.1247 43.0271C50.555 38.2409 52.4314 32.5161 52.5 26.6279V8.80828C52.4977 8.10818 52.2899 7.42416 51.9025 6.84099C51.5151 6.25783 50.9651 5.80117 50.3207 5.52762C43.2525 2.57748 35.6588 1.09381 28 1.16662C20.3412 1.09381 12.7475 2.57748 5.67933 5.52762C5.03488 5.80117 4.48487 6.25783 4.09748 6.84099C3.71009 7.42416 3.50234 8.10818 3.5 8.80828Z" stroke="#424242" stroke-width="2.33333" stroke-linecap="round" stroke-linejoin="round"/>
    <path d="M27.7501 39.5011C34.2394 39.5011 39.5001 34.2404 39.5001 27.751C39.5001 21.2617 34.2394 16.001 27.7501 16.001C21.2607 16.001 16 21.2617 16 27.751C16 34.2404 21.2607 39.5011 27.7501 39.5011Z" fill="#E3F2FD"/>
    <path d="M27.7501 39.5011C34.2394 39.5011 39.5001 34.2404 39.5001 27.751C39.5001 21.2617 34.2394 16.001 27.7501 16.001C21.2607 16.001 16 21.2617 16 27.751C16 34.2404 21.2607 39.5011 27.7501 39.5011Z" fill="#ED6A5A" stroke="#424242" stroke-width="2.33" stroke-linecap="round" stroke-linejoin="round"/>
    <path d="M31.9037 23.5967L23.5964 31.904" stroke="#424242" stroke-width="2.33" stroke-linecap="round" stroke-linejoin="round"/>
    <path d="M31.9037 31.904L23.5964 23.5967" stroke="#424242" stroke-width="1.95834" stroke-linecap="round" stroke-linejoin="round"/>
    </g>
    <defs>
    <clipPath id="clip0_13_1801">
    <rect width="56" height="56" fill="white"/>
    </clipPath>
    </defs>
    </svg>
    