<svg viewBox="0 0 200 200" xmlns="http://www.w3.org/2000/svg" height="400" width="400"><path d="M52.313,36.643c-1.137.28-2.158,2.1-1.4,2.364.536.188.481-.774,1.65-1.228C53.241,37.515,53.042,36.464,52.313,36.643Z" fill="#191919"></path><path d="M53.618,41c.39-.431-.038-2.019-.767-1.535C52.321,39.875,52.947,41.745,53.618,41Z" fill="#191919"></path><path d="M40.571,48.2a54.53,54.53,0,0,1,0,6.908c0,.583.767.6.9,0a40.188,40.188,0,0,0,.276-6.777c1.727-.369,3.116-2.3,3.661-3.493a1.856,1.856,0,0,0,2.517.461c.514-.476.123-1.12-.522-.89-.5.177-.9-.124-1.166-.576-.352-.592-.769-2.843.107-3.262.825-.394,2.082.6,2.272-.253a10.75,10.75,0,0,0,.338-5.173c2.955,0,9.669-.944,10.2-6.808.612-6.762-20.607-1.655-23.992,2.955C32.029,35.557,37.892,46.552,40.571,48.2Z" fill="#191919"></path><path d="M55.859,44.211c.975-.069,1.1-.914.975-1.781a28.21,28.21,0,0,0-2.057-7.015.414.414,0,0,0-.768.307,71.679,71.679,0,0,1,1.827,7.23c.037.185.054.169-.138.192-.784.094-1.982-.357-1.9,1.236a5.984,5.984,0,0,0,.069,1.12,3.144,3.144,0,0,1-2.3-.468c-.573-.383-.96.1-.814.768a3.331,3.331,0,0,0,3.009,2.609c0,.929-.046,1.973-1.1,2.249a11.815,11.815,0,0,1-3.714-.13c-.428-.079-.725.55-.292.767a4.091,4.091,0,0,0,1.251.384,25.14,25.14,0,0,0,.606,3.906.461.461,0,1,0,.891-.222c-.185-1.151-.415-2.372-.53-3.584a5.727,5.727,0,0,0,2.3-.192c1.535-.584,1.642-2.042,1.535-3.454,0-.338,0-.814-.614-.714,0,0-1.152.323-2.165-1.22a3.69,3.69,0,0,0,1.9.276c1.451-.177,1.005-.647,1.005-2.18A3.769,3.769,0,0,1,55.859,44.211Z" fill="#191919"></path><path d="M15.9,61.234a.637.637,0,0,0,1.1-.644c-.9-1.39-2.072-1.889-3.07-2.717A11.111,11.111,0,0,1,11.9,55.025c-.529-.767-1.193-.567-.829.461C12.044,58.215,13.309,58.523,15.9,61.234Z" fill="#191919"></path><path d="M18.505,53.713a25.937,25.937,0,0,1,.261-7.269c.154-.888-.295-1.045-.768-.214-.772,1.355-.929,6.019-.422,7.613C17.742,54.366,18.528,54.119,18.505,53.713Z" fill="#191919"></path><path d="M16.364,56.514c-1.159-4.275-.828-5.979-.438-10.07.046-.483-.625-.466-.767-.092-1.138,2.985-.837,7.483.23,10.454A.53.53,0,0,0,16.364,56.514Z" fill="#191919"></path><path d="M21.168,53.275a29.482,29.482,0,0,1,.491-5.3c.178-.922-.36-1.473-.852-.3a15.181,15.181,0,0,0-.652,5.5C20.231,54.4,21.156,54.542,21.168,53.275Z" fill="#191919"></path><path d="M24.775,60.459c.21-3.108-1.539-5.02-.882-9.977.076-.576-.5-1.027-.821,0-1.027,3.29.435,7.171.767,9.9C23.942,61.233,24.7,61.541,24.775,60.459Z" fill="#191919"></path><path d="M102.661,104.2a14.254,14.254,0,0,1-5.825-3.477c-2.145-2.455-3.21,2.037,5.557,4.3A.432.432,0,0,0,102.661,104.2Z" fill="#191919"></path><path d="M100.827,105.857a26.969,26.969,0,0,1-5.649-2.533c-.3-.181-1.131.1-.445.844a12.43,12.43,0,0,0,5.887,2.525C101.717,106.71,101.756,106.1,100.827,105.857Z" fill="#191919"></path><path d="M91.594,99.249c-.223.452.432,1,.768.544,1.869-2.531,5.618-.767,7.943-2.486a.606.606,0,0,0-.629-1.036C97.234,97.657,93.029,96.332,91.594,99.249Z" fill="#191919"></path><path d="M94.848,96.708c.607-.069.886-.412.66-.767-.328-.518-1.628-.228-2.3-.123-1.322.2-2.575.114-2.617.714C90.516,97.559,93.428,96.87,94.848,96.708Z" fill="#191919"></path><path d="M95.639,108.459a77.4,77.4,0,0,1-8.688-3.884c-.375-.194-1.1.061-.392.767,1.137,1.128,7.115,3.585,8.8,3.838C95.739,109.18,96.06,108.614,95.639,108.459Z" fill="#191919"></path><path d="M99.545,107.515c-2.3-.631-3.4-.694-5.7-2.011-.507-.291-1.03.409-.53.767a11.035,11.035,0,0,0,6.14,2.049A.425.425,0,0,0,99.545,107.515Z" fill="#191919"></path><path d="M152.564,47.158c0,3.147,1.527,4.342,3.017,6.77.519.846,1.291.4,1.166-.185-.348-1.628-2.717-2.387-3.323-6.631A.431.431,0,0,0,152.564,47.158Z" fill="#191919"></path><path d="M159.618,45.677c.315-2.65-.905-7.065-2.18-9.294a.46.46,0,0,0-.821.414,22.437,22.437,0,0,1,1.819,8.819C158.417,46.56,159.5,46.689,159.618,45.677Z" fill="#191919"></path><path d="M164.8,53.613c-.759-4.085-.077-11.515-1.228-15.158-.16-.507-1.1-.768-.905.192,1.041,5,.151,10.169.974,15.066C163.762,54.442,164.938,54.365,164.8,53.613Z" fill="#191919"></path><path d="M161.836,46.045c.537-1.581-.453-7.16-.96-8.588s-1.473-1.5-.974.461a31.7,31.7,0,0,1,.928,8.043A.53.53,0,0,0,161.836,46.045Z" fill="#191919"></path><path d="M154.368,38.424a17.624,17.624,0,0,1,1.5,10.085c-.113.767,1.034.981,1.143.238A17.327,17.327,0,0,0,155.158,38,.448.448,0,0,0,154.368,38.424Z" fill="#191919"></path><path d="M147.752,35.784c-2.092-3.924-7.4-4.41-11.228-3.147-3.691,1.216-5.113,5.573-5.373,9.141-.24,3.286-.058,8.444.921,11.129a6.145,6.145,0,0,0,5.219,4.352v2.7a.469.469,0,0,0,.929,0c.1-.9.115-1.811.169-2.717,1.826-.2,4.459-1.681,4.935-3.607a.411.411,0,0,0-.768-.292c-1.627,3.5-8.312,4.536-9.908-2.494-.8-5.162-1.294-13.407,2.931-16.455,2.248-1.621,9.172-2.1,11.229,1.988a9.737,9.737,0,0,1,.061,7.03A2.239,2.239,0,0,0,144.16,44.7c-.27.475.377.953.7.507,2.256-3.134,3.455,3.5,1.112,3.553-.283.007-1.327-.429-1.327.4,0,.43.445.714.836.814a27.259,27.259,0,0,0,1.075,8.389.471.471,0,0,0,.905-.261,51.333,51.333,0,0,1-1.043-8.136c2.448-.568,2.241-4.344,1.389-5.725C148.42,43.543,149.528,39.113,147.752,35.784Z" fill="#191919"></path><path d="M140.2,48.3c-.167-.768-.851-.836-1.159-.33a3.711,3.711,0,0,1-3.438,1.619c-.392,0-.55.352-.392.768C136.6,54,141.172,52.781,140.2,48.3Zm-.852.913c.077,2.487-1.934,3.139-3.032,1.389A4.332,4.332,0,0,0,139.348,49.215Z" fill="#191919"></path><path d="M137.744,45.715c.767-.053.7-2.271-.207-2.041C136.806,43.86,136.846,45.777,137.744,45.715Z" fill="#191919"></path><path d="M133.477,43.7c-.767.149-.929,1.986,0,1.942C134.305,45.6,134.175,43.561,133.477,43.7Z" fill="#191919"></path><path d="M139.1,40.765c-1.9-.538-2.54,1.167-1.243,1.036a1.783,1.783,0,0,1,1.619.415C140.644,43.282,141.259,41.378,139.1,40.765Z" fill="#191919"></path><path d="M133.975,40.811a1.662,1.662,0,0,0-1.327.668c-.43.483,0,1.036.345.713a1.215,1.215,0,0,1,1.113-.406C134.735,41.839,135.012,40.809,133.975,40.811Z" fill="#191919"></path><path d="M136.831,48.356c.43-.135.552-.828,0-.822a7.217,7.217,0,0,1-1.62-.153c.23-1.313.731-3.074.392-3.247-.619-.314-1.33,2.656-1.405,3.178C133.963,48.946,136.578,48.434,136.831,48.356Z" fill="#191919"></path><path d="M132.816,141.415c2.833,1.09,7.192,1.65,11.812,1.873-1.1-5.6-2.413-12.026-2.479-17.653-.006-.529.761-.69.822-.138a137.6,137.6,0,0,0,3.284,17.844,129.36,129.36,0,0,0,15.212-.414c.415-4.82.967-21.006,1.274-33.64-8.9,3.638-25.327,3.485-34.929.768C129.048,120.892,130.982,133.034,132.816,141.415Z" fill="#191919"></path><path d="M44.669,127.331a12.416,12.416,0,0,1-2.909.062A162.476,162.476,0,0,1,50.1,147.931c3.4,11.251,6.432,33.072,6.624,36.748,1.09.583,11.42.292,13.961,0,0-2.471,1.511-30.337.767-40.5-.4-5.418-2.6-21.958-4.321-34.346-11.566,3.477-26.862,3.631-38.229-.99.882,14.084,2.412,27.355-.415,35.121a218.746,218.746,0,0,1-14.475,29.372c.584.73,8.074,5.373,12.365,7.86,12.433-17.5,19.6-27.907,21.943-34.239a126.314,126.314,0,0,0-7.729-19.7,19.88,19.88,0,0,1-3.707-.99c-.453-.17-.428-1.012.291-.768a22,22,0,0,0,7.537,1.052C45.222,126.538,45.322,127.237,44.669,127.331Z" fill="#191919"></path><path d="M24.6,181.2a.575.575,0,1,0-.987.592c.061.1,6.527,10.441,5.93,11.089-.774.839-16.644-9.305-18.014-11.513-.872-1.406,1.606-3.062,3.262-5.249.394-.52-.278-1.347-.813-.883a21.838,21.838,0,0,0-3.193,3.6c-2.121,2.878.991,4.728,3.016,6.247a102.638,102.638,0,0,0,12.073,7.729c2.347,1.294,6.5,2.707,4.4-1.781A71.878,71.878,0,0,0,24.6,181.2Z" fill="#191919"></path><path d="M80.665,190.8a76.765,76.765,0,0,0-10.461-5,.677.677,0,1,0-.5,1.258c2.737,1.075,5.426,2.288,8.036,3.592,1.185.592,5.372,2.487,1.711,2.579l-20.822.507c-2.41.053-2.4-.323-1.927-2.587a23.114,23.114,0,0,1,1.535-4.544c.26-.588-.674-1.147-1.005-.567a15.668,15.668,0,0,0-1.7,4.6c-1,4.825,1.067,4.39,4.858,4.313l19.686-.438C83.182,194.434,83.15,192.51,80.665,190.8Z" fill="#191919"></path><path d="M109.423,171.985c20.422,3.125,46.9,5.229,67.64,6.669.837.058.836-1.243,0-1.3-22.589-1.466-47.383-4-67.54-6.409C108.97,170.882,108.832,171.894,109.423,171.985Z" fill="#191919"></path><path d="M187.793,28.9c-.113-5.288-.587-14.733-7.054-15.933-.53-.1-.766.762-.268.913,5.644,1.714,5.779,10.177,6.086,15.159a.119.119,0,0,1,0,.053c.514,53.472,2.238,94.556,1.842,146.931-.047,6.14-2.824,11.92-7.322,13.37-.446.143-.368.974.192.89,5.9-.886,8.665-8.957,8.657-14.245C189.852,126.8,188.906,81.158,187.793,28.9Z" fill="#191919"></path><path d="M138.373,17.824c-2.871.536-2.3,5.6.369,5.311C141.666,22.815,141.589,17.224,138.373,17.824Zm.138,1.236c1.182-.283,1.584,2.139.169,2.686C137.577,22.173,137.483,19.306,138.511,19.06Z" fill="#191919"></path><path d="M107.98,31.279c21.313-2.4,43.742-5.656,65.307-8.443.905-.117.9-1.536,0-1.42-21.671,2.81-45.839,5.793-65.476,8.627C107.113,30.144,107.282,31.357,107.98,31.279Z" fill="#191919"></path><path d="M180.632,28.477c-.086-11.144.391-21.331-14.391-19.064-16.256,2.492-33.042,5.7-49.258,7.744-13.992,1.76-13.226,11.267-13.155,23.424.089,15.181.2,29.99.391,46.173.007.56,1,.514.99,0-.258-16.678-.072-33-.084-49.167C105.117,26.8,105.4,20.1,117.236,18.4c16.536-2.376,33.041-5.179,49.565-7.675,10.868-1.642,12.459,4.705,12.541,14.49.424,50.08,1.427,100.152,2.019,150.231.13,11.029-2.249,15.886-14.022,14.26-16.678-2.3-34.92-2.969-51.085-5.787-9.977-1.739-9.991-9.21-9.978-17.284.031-18.658-.418-39.079-.767-58.107-.011-.614-.93-.522-.929.061.038,18.827.165,39.549.369,58.722.09,8.5.767,16.223,11.19,17.89,16.885,2.7,34.077,3.839,51.422,5.833,11.29,1.3,15.4-3.231,15.3-14.92C182.425,126.855,181.01,77.666,180.632,28.477Z" fill="#191919"></path><path d="M165.52,54.887c-2.034-.1-7.606,1.021-9.548,1.451a67.255,67.255,0,0,0,1.911,19.5c.14.475-.669.607-.829.169-1.585-4.34-2.241-10.861-2.471-15.535a16.978,16.978,0,0,0-5.649-2.2c-1.888.982-7.391,6.585-9.624,7.36-1.359-.975-2.3-2.042-3.6-5.526-8.711,2.517-15.419,15.58-18.328,19.51s-8.358,8.5-16.8,15.035a32.217,32.217,0,0,1,4.605,9.1,71.58,71.58,0,0,0,20.3-11.927A124.178,124.178,0,0,1,128,73.146c.134-.615.9-.491.768.115-2.157,13.508-2.533,21.72-1.1,35.267,9.341,2.77,26.5,2.9,35.144-.883.115-5.311.184-9.824.169-12.357-4.313-1.658-9.219-10.671-11.221-14.582-.216-.422.37-.823.629-.422,2.163,3.337,7.483,12.719,11.229,13.769,3.185.892,6.729-1.489,7.406-5.91C171.758,83.393,167.653,58.648,165.52,54.887Z" fill="#2c57a6"></path><path d="M73.957,81.5c-2.4-4.038-10.546-23.463-21.728-25.159-4.6,2.18-10.691,2.472-12.794-.376C31.668,57.635,27.55,66.138,25.9,73.161c-.139.591-.929.491-.768-.107a34.711,34.711,0,0,1,2.111-6.962c-.246-.867-.561-2.049-1.021-3.929-1.6-.438-7.921.146-10.323.652C14.882,79.7,18.965,90.59,21.429,93.868c1.04,1.384,3.838,2.111,6.04,1.9a114.4,114.4,0,0,1,3.769-27.937.355.355,0,0,1,.69.169C28.757,80.982,28.091,94,28.858,107.269c8.029,3.93,24.66,5.242,38.122,1.051-.652-4.681-1.212-8.634-1.535-10.967-7.761-6-9.951-7.822-14.383-18.021-.223-.514.407-.852.668-.346,2.3,4.461,4.59,9.112,8.443,12.388a70.065,70.065,0,0,0,24.951,14.368,24.118,24.118,0,0,1,5.158-10.277C88.478,94.237,75.585,84.243,73.957,81.5Z" fill="#2c57a6"></path><path d="M121.058,145.874c-10.937,0-9.209,21.354.6,21.989C132.817,168.586,131.005,145.874,121.058,145.874Zm-1.373,5.588c.58-1.649,2.517-1.666,3.07.184.307,1.028.445,4.943-.085,5.994a1.627,1.627,0,0,1-2.786-.13C119.277,156.419,119.235,152.737,119.685,151.462Zm2.041,10.054c.046.89,0,1.742.123,2.678s-1.059.837-1.2.116a17.218,17.218,0,0,1-.115-2.871c-3.27-.652-3.635-4.7-3.331-7.061.054-.422.852-.483.875,0,.114,2.4-.146,5.373,2.993,5.8s3.235-3.89,3.193-5.994c-.016-.813.958-.767,1,0C125.4,156.965,125.433,161.224,121.726,161.516Z" fill="#2c57a6"></path><path d="M140.491,146.987c-11.513.364-10.159,21.067-.322,22.212C152.59,170.644,151.566,146.638,140.491,146.987Zm.177,14.652c-.714.522-4.789-.185-5.242-.729-.683-.822-.691-5.12-.115-5.634s5.432.277,5.748.952c.257.547.2,5-.406,5.441Zm4.29,1.611c-.852,0-2.916-3.783-2.924-4.321s2.671-3.776,3.4-3.538c.545.215.177,7.867-.491,7.89Z" fill="#2c57a6"></path><path d="M160.447,148.253c-11.145-.474-11.46,22.239.452,22.4C172.128,170.8,172.55,148.769,160.447,148.253Zm6.347,11.175c.161.522.053,2.38-.614,2.863a5.276,5.276,0,0,1-3.9-.176c-.336-.294-.2-1.888-.177-2.142.133-1.241-4.221-1.136-4.09-.1s.06,1.826-.238,2.027c-.431.29-2.687.414-3.278-.223a4.357,4.357,0,0,1-.207-2.809c2.072-3.791,11.421-3.124,12.518.56Z" fill="#2c57a6"></path><path d="M89.721,10.1c-.482-.332-1.073.39-.652.768,1.042.936,6.37,5.633,7.675,6.14a.5.5,0,0,0,.568-.714C96.575,15.161,90.853,10.882,89.721,10.1Z" fill="#2c57a6"></path><path d="M104.7,11.8c.079-.766-1.618-5.577-1.934-6.508a.534.534,0,0,0-1.006.2c.009,1.205,1.228,5.833,2.088,6.6A.5.5,0,0,0,104.7,11.8Z" fill="#2c57a6"></path><path d="M93.674,25.346c-.66-.361-6.324.23-7.245.476a.53.53,0,0,0,.053,1.02c.645.07,6.547-.069,7.23-.591A.529.529,0,0,0,93.674,25.346Z" fill="#2c57a6"></path></svg>